PathFileType	4	(X/Y/Z)	./resultDataOpenSim/trcMotMarkerGrf/sub06/qtm-03-03.trc
DataRate	CameraRate	NumFrames	NumMarkers	Units	OrigDataRate	OrigDataStartFrame	OrigNumFrames
250.000000	250.000000	12	24	m	250.000000	1	495
Frame#	Time	L.Toe.Tip			R.Toe.Tip			L.Ankle.Lat			R.Ankle.Lat			L.Ankle.Med			R.Ankle.Med			L.Heel			R.Heel			L.Knee.Lat			R.Knee.Lat			L.Knee.Med			R.Knee.Med			L.Thigh.Upper			R.Thigh.Upper			L.ASIS			R.ASIS			V.Sacral			L.Acromium			R.Acromium			C7			L.Elbow			R.Elbow			L.Wrist.Lat			R.Wrist.Lat
		X1	Y1	Z1	X2	Y2	Z2	X3	Y3	Z3	X4	Y4	Z4	X5	Y5	Z5	X6	Y6	Z6	X7	Y7	Z7	X8	Y8	Z8	X9	Y9	Z9	X10	Y10	Z10	X11	Y11	Z11	X12	Y12	Z12	X13	Y13	Z13	X14	Y14	Z14	X15	Y15	Z15	X16	Y16	Z16	X17	Y17	Z17	X18	Y18	Z18	X19	Y19	Z19	X20	Y20	Z20	X21	Y21	Z21	X22	Y22	Z22	X23	Y23	Z23	X24	Y24	Z24

1	0	-1.5883069	0.032018245	-0.096413647	-0.96375844	0.099473998	0.11499698	-1.705136	0.081450325	-0.11051359	-1.0940696	0.080949993	0.12039206	-1.6956984	0.093404732	-0.026699359	-1.0788008	0.11245495	0.037454421	NaN	NaN	NaN	-1.1311899	0.042660252	0.045251102	-1.5298316	0.41200191	-0.12352027	-1.2026785	0.45495405	0.1339794	-1.5392887	0.41205677	-0.0034744277	-1.2137134	0.43500955	0.0062967859	-1.4277665	0.7850441	-0.17996128	-1.3951445	0.77618832	0.16884071	-1.3399056	0.81998543	-0.14254812	-1.310675	0.8233763	0.10504565	-1.5049618	0.90909318	0.0076781638	-1.3335617	1.3082939	-0.190336	-1.3343428	1.2880723	0.17158886	-1.4035069	1.3454983	-0.008535197	-1.3781675	0.99032028	-0.26596752	-1.4697669	0.99923576	0.22326647	-1.1813758	0.83666678	-0.25524947	-1.37207	0.78382131	0.2706278
2	0.004	-1.5883099	0.031998031	-0.096459547	-0.95019131	0.10376348	0.1142663	-1.7048409	0.082326362	-0.11091105	-1.0811229	0.081688939	0.12085557	-1.6950078	0.094498234	-0.02712399	-1.0666321	0.11330855	0.037909966	NaN	NaN	NaN	-1.1171449	0.042278764	0.046294562	-1.5261476	0.41145739	-0.12357002	-1.1958532	0.45361916	0.13373183	-1.5354866	0.41154549	-0.0036384953	-1.2072559	0.4329815	0.0058517556	-1.4225921	0.78389129	-0.18013898	-1.38895	0.77427455	0.16869159	-1.3341424	0.81868318	-0.14259375	-1.3037485	0.82169943	0.10499416	-1.4984642	0.90757447	0.0088040688	-1.3274117	1.3068345	-0.18986071	-1.3288654	1.2865969	0.17220684	-1.3976204	1.3440906	-0.0082657009	-1.3710046	0.98860247	-0.26638622	-1.4646308	0.99787657	0.22336824	-1.173093	0.83628542	-0.25418016	-1.3679882	0.78204658	0.27110564
3	0.008	-1.5883033	0.031980689	-0.096512173	-0.93739415	0.10753874	0.11382273	-1.7043782	0.083253209	-0.11132571	-1.0685599	0.082379623	0.12127563	-1.6943264	0.095540201	-0.027541955	-1.0548075	0.11407868	0.038266339	NaN	NaN	NaN	-1.1036889	0.041894285	0.047156313	-1.5224004	0.41092459	-0.12368942	-1.1890627	0.45231293	0.13351096	-1.531716	0.41100329	-0.0037929384	-1.2007595	0.4310057	0.0053668517	-1.4173502	0.78266978	-0.18022625	-1.382503	0.77241221	0.16864644	-1.3283486	0.81739528	-0.14261547	-1.2968402	0.82007515	0.10495312	-1.4919878	0.90600309	0.0097774452	-1.3212537	1.305396	-0.18936452	-1.3233324	1.2851376	0.17284182	-1.3916795	1.3427077	-0.007890922	-1.3638352	0.98690549	-0.26667899	-1.4595746	0.99664454	0.22350859	-1.1648455	0.83588771	-0.2531167	-1.3638807	0.78031173	0.27160295
4	0.012	-1.588282	0.031964235	-0.096573482	-0.92565048	0.11060355	0.11366847	-1.7035736	0.084253687	-0.11179136	-1.0566185	0.082962013	0.12158944	-1.693558	0.096574804	-0.027986144	-1.0435362	0.11469831	0.038468584	NaN	NaN	NaN	-1.0910938	0.041494468	0.047760561	-1.5185025	0.41039745	-0.12387771	-1.1822318	0.45106885	0.13333185	-1.5279596	0.41041932	-0.0039260193	-1.1941846	0.42911446	0.0048394561	-1.4119411	0.78136323	-0.180028	-1.3753265	0.77066787	0.16888819	-1.3224724	0.81612791	-0.14258288	-1.289914	0.81852311	0.10492138	-1.4855275	0.90441146	0.010580173	-1.3150654	1.3039855	-0.18882723	-1.3177231	1.2837057	0.17350313	-1.3856625	1.3413638	-0.0074190918	-1.3566075	0.98525053	-0.26660399	-1.4545457	0.99552003	0.22368365	-1.1566445	0.83546792	-0.25205926	-1.3597151	0.7786301	0.27213605
5	0.016	-1.588245	0.031944821	-0.096640647	-0.91484761	0.11301108	0.11360898	-1.7024113	0.085328531	-0.11232503	-1.0453881	0.083380409	0.12175058	-1.6925239	0.097689603	-0.02852323	-1.0328866	0.11513111	0.038503879	NaN	NaN	NaN	-1.0793711	0.041064855	0.048111842	-1.5144049	0.40986333	-0.12407257	-1.1752387	0.44991405	0.13320448	-1.5240852	0.40979177	-0.0040497533	-1.187517	0.42732381	0.0043071192	-1.4063182	0.78001614	-0.17943454	-1.3670236	0.76911189	0.16956528	-1.3164827	0.81487863	-0.14247919	-1.2829325	0.81704606	0.1048927	-1.4790849	0.90289435	0.011299911	-1.3088349	1.3026055	-0.18824447	-1.3120414	1.2823077	0.17419279	-1.3795877	1.3400646	-0.0069240365	-1.3493125	0.98364785	-0.26608884	-1.4494096	0.99437253	0.22385835	-1.148507	0.83503516	-0.25101041	-1.3554613	0.77699745	0.27270346
6	0.02	-1.5881921	0.031920835	-0.096710595	-0.90478321	0.11484535	0.11347494	-1.701087	0.086477308	-0.11290158	-1.0348554	0.083602158	0.12175051	-1.6911394	0.098928809	-0.029187842	-1.0228363	0.11537027	0.038379071	NaN	NaN	NaN	-1.0684543	0.040592943	0.048235935	-1.5101215	0.40930738	-0.124226	-1.168016	0.44884708	0.13313592	-1.5199425	0.40910258	-0.0041874561	-1.1807546	0.42564779	0.003813655	-1.4005298	0.77869391	-0.17857165	-1.357941	0.76772249	0.17053487	-1.3103837	0.81365798	-0.14231707	-1.2758803	0.81564343	0.10486424	-1.4726653	0.90152072	0.012030947	-1.3025592	1.3012607	-0.18762704	-1.3062829	1.2809465	0.17491241	-1.3734708	1.3388079	-0.0064427848	-1.3420258	0.98208792	-0.2654291	-1.4440902	0.99312481	0.22401445	-1.1404522	0.83460595	-0.24997525	-1.3510931	0.77541165	0.27329073
7	0.024	-1.5881217	0.031895675	-0.096784234	-0.89531708	0.1161257	0.1131912	-1.699804	0.087700099	-0.11347756	-1.0249803	0.083613685	0.12159662	-1.6896157	0.10026997	-0.029907981	-1.0133564	0.11541478	0.038107802	NaN	NaN	NaN	-1.0583091	0.040063416	0.048165897	-1.5056905	0.40871544	-0.12435071	-1.1606019	0.44783816	0.13311263	-1.5154728	0.40833966	-0.0043478204	-1.1739024	0.42411667	0.0033740498	-1.3946632	0.77743902	-0.17765257	-1.3490881	0.76637342	0.17139947	-1.3041847	0.81250246	-0.14212072	-1.2687631	0.8143103	0.10483296	-1.4662382	0.90028712	0.01279941	-1.2962426	1.2999574	-0.18698252	-1.3004465	1.2796262	0.17566203	-1.3673095	1.3375903	-0.0059551	-1.3348308	0.98056525	-0.26495408	-1.4386165	0.99181493	0.22416489	-1.1324937	0.83419421	-0.248954	-1.3466047	0.7738802	0.27388899
8	0.028	-1.5880314	0.031877186	-0.096864647	-0.88636987	0.11681826	0.11273151	-1.6986016	0.088996071	-0.11402966	-1.0157381	0.083405371	0.12129791	-1.6884619	0.10162355	-0.030504986	-1.0044585	0.11524318	0.037701104	NaN	NaN	NaN	-1.0489408	0.039456379	0.047939429	-1.5011159	0.40808644	-0.1244904	-1.1530902	0.44686031	0.13309642	-1.5106464	0.40752442	-0.0045363679	-1.1669772	0.4227777	0.0029756652	-1.3887658	0.77625509	-0.17678966	-1.3411133	0.76498607	0.17190104	-1.297877	0.81144573	-0.14190447	-1.2615985	0.81304037	0.1047862	-1.459674	0.89913112	0.013519608	-1.2898898	1.2986991	-0.18630601	-1.2945326	1.2783498	0.17643898	-1.3610923	1.3364088	-0.0054234001	-1.3277276	0.97909786	-0.2646458	-1.433045	0.99051719	0.22433071	-1.1246331	0.83380476	-0.24794145	-1.3420106	0.77241123	0.27450082
9	0.032	-1.5879204	0.031871215	-0.096950772	-0.87791999	0.11688503	0.11207293	-1.6974068	0.090367428	-0.11456187	-1.0071259	0.082961432	0.12086727	-1.688291	0.10284676	-0.03076139	-0.9961875	0.11481281	0.037165045	NaN	NaN	NaN	-1.0403655	0.038743915	0.047593142	-1.4963403	0.40742939	-0.12467636	-1.1455412	0.44591704	0.13304667	-1.5055096	0.4066767	-0.0047521837	-1.1600004	0.42167384	0.0026111705	-1.3828387	0.77512484	-0.17600538	-1.333835	0.76361094	0.17209501	-1.2914703	0.81047811	-0.14168186	-1.2543908	0.8118303	0.10470732	-1.4527315	0.89797094	0.013988605	-1.283498	1.2974876	-0.18559073	-1.288532	1.2771178	0.17724243	-1.3548118	1.3352595	-0.0048250513	-1.3206666	0.97771292	-0.26428266	-1.4274041	0.98927708	0.22452441	-1.1168638	0.83342925	-0.24693738	-1.3373234	0.77100859	0.27513349
10	0.036	-1.5877907	0.031877146	-0.097036319	-0.8700138	0.11633516	0.11119123	-1.6961579	0.091821792	-0.115087	-0.99915287	0.082260988	0.12031989	-1.6893493	0.10385325	-0.030584676	-0.98857633	0.11408414	0.036506731	NaN	NaN	NaN	-1.0325937	0.037880299	0.047161454	-1.4912849	0.40674879	-0.12490956	-1.1379428	0.44503465	0.13293646	-1.5001818	0.40579019	-0.0049911958	-1.1529793	0.42082007	0.0022962333	-1.3768672	0.77403359	-0.17530546	-1.3267649	0.76234173	0.17215305	-1.2850193	0.80954325	-0.14147964	-1.2471151	0.81067943	0.104593	-1.4452267	0.89675593	0.014038333	-1.2770577	1.2963249	-0.18483748	-1.2824321	1.2759285	0.17807188	-1.3484677	1.3341436	-0.0041519405	-1.3136264	0.97642475	-0.26376348	-1.4216957	0.98810868	0.22475003	-1.1091766	0.83304864	-0.24595088	-1.3325334	0.76967525	0.27578917
11	0.04	-1.5876436	0.031890663	-0.097115503	-0.86272858	0.11522829	0.11007133	-1.6948206	0.093368319	-0.11562276	-0.99183192	0.081287004	0.11966137	-1.6908401	0.10477395	-0.030231711	-0.98162612	0.11303923	0.035737497	NaN	NaN	NaN	-1.0256293	0.036811154	0.046675308	-1.4859171	0.40604009	-0.12516069	-1.1302486	0.44423337	0.13274793	-1.4946575	0.40486139	-0.0052680666	-1.1458987	0.42020253	0.0020519112	-1.3708346	0.77297837	-0.17467438	-1.3196045	0.76123066	0.17219067	-1.278595	0.80858327	-0.14133577	-1.2397317	0.80959028	0.10445365	-1.4373255	0.89551389	0.013836805	-1.2705613	1.2952116	-0.18404826	-1.2762248	1.2747816	0.17892333	-1.3420662	1.3330675	-0.0034078967	-1.3066136	0.97522468	-0.26311993	-1.4159125	0.9870126	0.22500939	-1.1015621	0.83264668	-0.24499142	-1.3276153	0.76841403	0.27646003
12	0.044	-1.5874781	0.031907707	-0.097187015	-0.85610672	0.11363005	0.10870514	-1.6933428	0.095011872	-0.11619729	-0.98517718	0.080034863	0.11889081	-1.6911946	0.1059139	-0.030210909	-0.97532652	0.11167904	0.034872125	NaN	NaN	NaN	-1.019466	0.035504906	0.046154692	-1.4802758	0.40529669	-0.12539885	-1.1224547	0.44351283	0.13246428	-1.4888606	0.4039001	-0.0055875166	-1.1387344	0.41979832	0.0018856118	-1.3647251	0.77196339	-0.17406617	-1.3122964	0.76028252	0.17225584	-1.2722484	0.80758215	-0.14129635	-1.2322158	0.80857456	0.10429826	-1.4295286	0.89433559	0.013852576	-1.2640105	1.2941472	-0.18322058	-1.269912	1.2736813	0.1797931	-1.335616	1.3320344	-0.0026068452	-1.2996288	0.97408587	-0.2623741	-1.4100467	0.98598769	0.22530632	-1.0940147	0.83222438	-0.24405932	-1.3225468	0.76722456	0.27713582
